<?xml version="1.0" encoding="UTF-8"?><svg id="svg1" xmlns="http://www.w3.org/2000/svg" viewBox="0 0 911.74 911.74"><path d="M455.87,0C204.1,0,0,204.1,0,455.87s204.1,455.87,455.87,455.87,455.87-204.1,455.87-455.87S707.64,0,455.87,0ZM670.68,605.61l-40.99-40.98-4.4,25.18-8.7,8.71-63.02-63.02h-75.39l-46.26,70.86h-96.2v-37.3h76l46.25-70.86h111.05l29.29,29.29,6.99-40.01,80.83,80.83h99.43l-72.36-72.36h-38.04l-90.52-90.52-2.1,3.21-22.77,34.88-11.34,17.37h-95.26l-38.92,59.64-66.64-38.47-64.32,98.53-16.82,25.76H65.45l148.92-228.16,42.53,24.56,71.64-109.77,70.54,40.72,47.79-73.25,77.56,77.56,18.94-26.56,35.13,35.13,41.59-63.73-33.01,5.58-6.21-36.78,94.85-16.04,15.81,93.53-36.78,6.21-5.02-29.7-44.29,67.86,85.13,85.13h38.04l135.2,135.2v11.76h-193.16.03Z" style="fill:#fe5c00; stroke-width:0px;"/><polygon points="557.68 378.49 528.24 423.6 432.97 423.6 416.16 449.37 402.31 470.57 335.68 432.1 246.29 569.06 134.34 569.06 226.31 428.15 268.85 452.71 340.49 342.93 385.48 368.92 387.23 369.91 411.02 383.66 453.01 319.32 529.23 395.54 548.17 368.98 557.68 378.49" style="fill:#f60; stroke-width:0px;"/></svg>