<?xml version="1.0" encoding="UTF-8"?>
<svg id="Layer_1" data-name="Layer 1" xmlns="http://www.w3.org/2000/svg" viewBox="0 0 109.46 109.57">
  <defs>
    <style>
      .cls-1 {
        fill: #bcbcbc;
      }
    </style>
  </defs>
  <path class="cls-1" d="M76.49,105.94c-.02,2.18-1.45,3.6-3.28,3.49-1.45-.09-2.87-1.77-2.85-3.45l.1-11.06-12.21-.14-.75,7.64-.32,6.24-3.2.76c-.75.18-2.23-1.2-2.24-1.97l-.18-12.57-12.7-.02.33,11.32c.05,1.66-1.65,3.49-3.05,3.39-2.4-.19-3.1-1.75-3.11-4.05l-.03-10.57c-8.73.65-16.49-1.93-17.67-9.79l-1.3-8.64-12.77-.42c-1.42-.05-1.66-4.92-.27-5.53l13.13-.38c1.05-4.23,1.01-8.18.08-12.49l-11.37-.1c-.93,0-2.41-1.35-2.72-2.13s.13-3,.79-3.59l13.51-.4.1-12.5-10.49.08c-1.08,0-2.92-.81-3.51-1.71-.53-.81-.27-3.02.43-3.99l11.92-.89c1.1-.08,2.06-1.77,1.91-2.87-.96-6.96,2.76-13.18,9.81-14.71l8.37-.42.33-11.53c.02-.65.45-2.02.78-2.58s2.68-.37,3.25.03c3.6,2.51.65,8.4,1.97,14.13l12.22.05.45-10.52c.08-1.8.05-3.48,1.25-3.8,2.07-.54,3.83.51,3.97,2.3l.95,12.09,12.33-.2c-.27-5.06-.15-9.22.58-13.69,1.09-.44,3.34-.77,4.17-.37s1.29,2.34,1.3,3.44l.13,10.55,9.54.55c7.24,3.88,9.16,8.4,8.67,17.26,2.42.8,4.72.68,7.47.79l5.62.24c.79.03,1.62,2.38,1.5,3.2-.13.96-1.78,2.56-2.9,2.56l-11.76.02.27,12.48,12.99.43c1.85.06,1.81,5.46-.06,5.51l-12.98.31-.17,12.47,11.82.2c.89.01,2.45,1.22,2.75,2.04s-.24,3.1-.96,3.72l-13.11.33-.53,6.23c-.45,5.33-4.16,10.82-9.88,11.83l-8.32.46-.09,10.94ZM76.38,81.63c4.38-.02,5.16-5.01,5.16-8.23l.06-21.98-.08-16.81c0-2.1-.52-4.34-1.93-5.56-1.25-1.08-3.28-1.37-5.25-1.36l-41.3.13c-3.54.01-5.37,3.86-5.24,6.75l.26,5.55v19.94s.3,18.14.3,18.14c.87,1.22,3.15,3.5,4.47,3.59l43.56-.16Z"/>
  <path class="cls-1" d="M74.05,74.83l-38.23-.03c-1.35-2.94-1.32-5.56-1.27-8.7l.15-8.58.06-14.89c.01-2.6-.75-6,1.99-7.96l36.71-.03c1.23,2.9,1.62,5.6,1.56,8.61l-.28,14.24.09,10.12c.02,2.3-.22,4.59-.79,7.23Z"/>
</svg>