<?xml version="1.0" encoding="UTF-8"?>
<svg id="Layer_1" data-name="Layer 1" xmlns="http://www.w3.org/2000/svg" viewBox="0 0 18.23 18.12">
  <defs>
    <style>
      .cls-1 {
        fill: #464646;
      }

      .cls-2 {
        fill: #f8a16f;
      }
    </style>
  </defs>
  <path class="cls-1" d="M17.86,15.17c.68.67.31,1.76-.13,2.29-.51.61-1.73.98-2.39.32l-3.83-3.8c.04-.88-.31-1.5-1.11-1.95-2.37,1.68-5.55,1.64-7.85-.19C-.28,9.57-.82,5.62,1.25,2.75S7.25-.87,10.19,1.08s3.92,5.97,1.94,9.08c.29.75.95,1.23,1.86,1.16l3.86,3.84ZM7.19,11.41c3.18-.4,4.92-3.65,3.9-6.43S6.85.93,4.23,2.43c-2.04,1.17-2.89,3.53-2.21,5.65s2.68,3.65,5.16,3.34Z"/>
  <path class="cls-2" d="M8.02,10.1c-1.11.45-1.81.42-2.76.06-1.56-.59-2.44-1.95-2.44-3.59,0-1.46.96-2.89,2.5-3.51,1.93-.77,4.03.3,4.8,2.25.69,1.74-.15,3.99-2.1,4.78Z"/>
</svg>